<?xml version="1.0" encoding="UTF-8"?><svg xmlns="http://www.w3.org/2000/svg" viewBox="0 0 141.73 85.04"><defs><style>.g{fill:#004366;}.h{fill:#6cf;}.i{fill:#e62456;}.j{fill:#a5966a;}.k{fill:#51dcad;}.l{fill:#5140b5;}</style></defs><g id="a"/><g id="b"/><g id="c"/><g id="d"/><g id="e"/><g id="f"><g><path class="g" d="M70.56,49.03c-1.56-3.25-5.41-4.85-11.69-3.49-.82,.18-1.66,.39-2.56,.67-1.87,.58-3.91,1.38-6.13,2.45,1.46,.91,3.24,1.3,5.08,.92h0c4.89-1.02,9.4,3.5,8.38,8.38l-1.17,5.63c7.42-5.42,9.2-12.25,8.1-14.56Z"/><path class="g" d="M30.1,24.43h0c-.7,3.39,1.25,6.59,4.14,7.9,.18-.87,.33-1.69,.46-2.49,1.51-9.57-1.04-14.53-5.33-15.59-1.15-.29-3.12,.25-5.28,1.74,3.86,.56,6.86,4.37,6.01,8.44Z"/><path class="l" d="M55.25,49.58h0c-1.84,.38-3.62-.02-5.08-.92-.02,0-.04,.02-.05,.02-2.01,.96-4.06,1.98-6.06,3.01,1.4,1.11,3.21,1.69,5.05,1.36h0c4.25-.76,8.33,3.32,7.57,7.57l-1.21,6.78c.71-.26,1.4-.55,2.07-.87,1.87-.9,3.5-1.9,4.93-2.94l1.17-5.63c1.02-4.89-3.5-9.4-8.38-8.38Z"/><path class="l" d="M26.39,30.34h0c-.69,3.87,2.63,7.59,6.44,7.65,.34-1.26,.66-2.53,.98-3.78,.11-.46,.21-.89,.3-1.32,.04-.18,.09-.37,.13-.55-2.89-1.31-4.84-4.51-4.14-7.9h0c.85-4.08-2.16-7.88-6.01-8.44-2.05,1.41-4.28,3.68-6.14,6.94l.87-.16c4.25-.76,8.33,3.32,7.57,7.57Z"/><path class="h" d="M49.11,53.05h0c-1.84,.33-3.65-.25-5.05-1.36-1.23,.63-2.44,1.26-3.62,1.9,.89,.38,1.86,.55,2.84,.42h0c3.62-.5,7.26,3.14,6.76,6.76l-1.08,7.84-.36,.36c2.35-.26,4.68-.75,6.88-1.55l1.21-6.78c.76-4.25-3.32-8.33-7.57-7.57Z"/><path class="h" d="M23,33.73h0c-.5,3.62,3.14,7.26,6.76,6.76,.79-.11,1.59-.01,2.34,.23,.25-.91,.5-1.82,.74-2.74-3.81-.06-7.13-3.77-6.44-7.65h0c.76-4.25-3.32-8.33-7.57-7.57l-.87,.16c-.7,1.22-1.33,2.58-1.9,4.08l.19-.03c3.62-.5,7.26,3.14,6.76,6.76Z"/><path class="k" d="M50.03,60.76c.5-3.62-3.14-7.26-6.76-6.76h0c-.97,.13-1.94-.04-2.84-.42-1.42,.76-2.79,1.52-4.08,2.26,.8,.4,1.66,.62,2.5,.55h0c2.98-.24,6.18,2.96,5.94,5.94l-.52,6.46-.36,.36c1.54,.03,3.11-.03,4.67-.2l.36-.36,1.08-7.84Z"/><path class="k" d="M21.02,38.56h0c-.24,2.99,2.96,6.18,5.94,5.94,1.27-.1,2.59,.43,3.65,1.29,.5-1.64,.99-3.34,1.47-5.07-.75-.24-1.54-.34-2.34-.23-3.62,.5-7.26-3.14-6.76-6.76h0c.5-3.62-3.14-7.26-6.76-6.76l-.19,.03c-.43,1.14-.82,2.34-1.15,3.65-.16,.66-.29,1.33-.4,2.01l.58-.05c2.98-.24,6.18,2.96,5.94,5.94Z"/><path class="j" d="M17.33,43.81h0c-.21,2.58,2.55,5.34,5.13,5.13h0c2.58-.21,5.34,2.55,5.13,5.13-.02,.2,0,.39,0,.59,.96-2.43,2-5.51,3.02-8.87-1.07-.87-2.38-1.39-3.65-1.29-2.98,.24-6.18-2.96-5.94-5.94h0c.24-2.99-2.96-6.18-5.94-5.94l-.58,.05c-.33,2.11-.39,4.28-.24,6.44,1.79,.85,3.22,2.83,3.07,4.71Z"/><path class="j" d="M44.8,62.33c.24-2.98-2.96-6.18-5.94-5.94h0c-.85,.07-1.71-.15-2.5-.55-1.95,1.11-3.72,2.18-5.19,3.15,.51,.18,1.04,.26,1.56,.22h0c2.58-.21,5.34,2.55,5.13,5.13l-.34,4.17c2.01,.37,4.18,.61,6.4,.65l.36-.36,.52-6.46Z"/><path class="i" d="M25.65,58.82c.59-.95,1.25-2.38,1.95-4.16-.02-.2-.02-.39,0-.59,.21-2.58-2.55-5.34-5.13-5.13h0c-2.58,.21-5.34-2.55-5.13-5.13h0c.15-1.89-1.28-3.86-3.07-4.71,.42,6.11,2.54,12.08,4.99,16.1,2.29,.78,4.45,1.99,6.39,3.62Z"/><path class="i" d="M37.86,64.33c.21-2.58-2.55-5.34-5.13-5.13h0c-.52,.04-1.05-.04-1.56-.22-1.26,.83-2.31,1.59-3.08,2.24,1.37,1.63,2.43,3.43,3.2,5.32-.02,.04-.05,.07-.07,.11,1.77,.76,3.92,1.4,6.3,1.85l.34-4.17Z"/><path d="M55.47,30.98c-2.64-2.64-6.24-3.91-10.19-3.91-3.4,0-7.06,.95-10.58,2.77-.13,.8-.27,1.62-.46,2.49-.04,.18-.09,.37-.13,.55,3.61-2.21,7.52-3.45,11.17-3.45s6.42,1.11,8.53,3.22c.38,.38,.72,.79,1.03,1.22-10.91,5.94-22.21,17.1-28.77,25.32-.14-.12-.28-.24-.42-.36-1.94-1.63-4.11-2.85-6.39-3.62-.02,0-.04-.02-.06-.02-.55,.36-1.08,.79-1.55,1.29-3.23,3.44-3.07,8.85,.37,12.08,3.44,3.23,8.85,3.07,12.08-.37,.44-.47,.81-.98,1.12-1.51,.02-.04,.05-.07,.07-.11-.77-1.89-1.84-3.69-3.2-5.32-.11-.13-.23-.25-.34-.38,6.38-8.05,17.53-19.11,28.25-24.94,1.29,2.96,1.36,6.58,.31,10.3,.9-.28,1.75-.49,2.56-.67,1.22-5.6,.18-10.98-3.4-14.56Z"/><g><path d="M76.63,29.39l1.15,.1v1.8h-5.28v-1.73l.74-.07c.38-.02,.58-.17,.58-.72v-12.03c0-.53-.12-.67-.55-.7l-.82-.07v-1.8h4.18v10.22c1.8-.17,3.6-1.7,3.6-2.9,0-.34-.22-.43-.55-.48l-.62-.07v-1.75h4.87v1.8l-1.13,.12c-.14,1.32-.91,2.62-2.16,3.58l2.38,4.7,1.3,.1v1.8h-3.53l-2.54-5.38c-.55,.22-1.03,.34-1.61,.41v3.07Z"/><path d="M87.6,19.24c1.1,0,1.75,.65,1.75,1.61s-.62,1.7-1.68,1.7c-1.15,0-1.78-.7-1.78-1.68s.67-1.63,1.7-1.63Zm0,9.05c1.1,0,1.75,.65,1.75,1.61s-.62,1.7-1.68,1.7c-1.15,0-1.78-.7-1.78-1.68s.67-1.63,1.7-1.63Z"/><path d="M100.61,22.26c0,3.43-2.9,4.27-6.99,4.13,.12,1.61,.91,3,3,3,1.39,0,2.42-.58,3.02-.98l.84,1.99c-.38,.29-1.97,1.22-4.18,1.22-4.06,0-5.57-2.64-5.57-6.05,0-3.72,2.09-6.7,5.93-6.7,2.42,0,3.94,1.13,3.94,3.38Zm-4.06-1.27c-1.92,0-2.76,1.8-2.93,3.36,.34,.02,.65,.02,.96,.02,2.09,0,3.46-.53,3.46-1.97,0-1.01-.6-1.42-1.49-1.42Z"/><path d="M114.34,19.19v1.78l-.58,.05c-.38,.05-.55,.17-.74,.7l-3.38,9.58h-3.34l-3.58-10.18-1.08-.14v-1.78h5.45v1.82l-.77,.07c-.38,.05-.48,.26-.36,.67l2.16,6.82h.02l2.5-7.44-1.08-.1v-1.85h4.78Z"/><path d="M125.59,28.84c0,.48,.12,.65,.53,.67l.7,.05v1.73h-3.55l-.07-1.27-.07-.02c-.6,.86-1.66,1.61-3.31,1.61-3.5,0-4.8-2.47-4.8-5.83,0-4.22,2.09-6.89,6.34-6.89,.79,0,2.54,.17,4.25,.82v9.14Zm-2.81-7.49c-.36-.14-1.08-.31-1.8-.31-2.38,0-3.07,2.18-3.07,4.63,0,1.9,.48,3.77,2.47,3.77,1.54,0,2.4-1.06,2.4-2.18v-5.9Z"/></g></g></g></svg>